<?xml version="1.0" standalone="no"?>
<!DOCTYPE svg PUBLIC "-//W3C//DTD SVG 20010904//EN"
 "http://www.w3.org/TR/2001/REC-SVG-20010904/DTD/svg10.dtd">
<svg version="1.0" xmlns="http://www.w3.org/2000/svg"
 width="300.000000pt" height="200.000000pt" viewBox="0 0 300.000000 200.000000"
 preserveAspectRatio="xMidYMid meet">
<metadata>
Created by potrace 1.10, written by Peter Selinger 2001-2011
</metadata>
<g transform="translate(0.000000,200.000000) scale(0.100000,-0.100000)"
fill="#000000" stroke="none">
<path d="M543 1355 c-169 -37 -293 -166 -293 -303 0 -100 51 -159 174 -201
144 -50 352 -66 455 -35 105 31 169 123 158 228 -21 203 -271 361 -494 311z
m67 -53 c-53 -37 -78 -63 -101 -106 -20 -38 -21 -48 -10 -58 11 -11 17 -8 35
17 36 51 114 131 141 145 21 11 33 11 85 -5 33 -10 60 -21 60 -24 0 -4 -16
-15 -36 -26 -84 -45 -168 -185 -111 -185 7 0 31 24 54 54 42 55 119 116 146
116 19 0 71 -59 98 -112 27 -54 28 -135 2 -181 -11 -17 -39 -43 -64 -57 -42
-24 -52 -25 -189 -24 -213 2 -354 44 -407 123 -86 127 91 337 287 339 l35 1
-25 -17z"/>
<path d="M1157 1313 c-4 -3 -7 -71 -7 -150 0 -124 2 -145 16 -150 9 -3 24 -1
34 5 10 6 22 7 31 1 26 -16 77 -10 104 14 51 44 41 157 -16 188 -21 11 -58 9
-93 -6 -18 -8 -19 -5 -13 37 4 28 2 49 -5 56 -13 13 -41 16 -51 5z m133 -153
c11 -11 20 -30 20 -42 0 -27 -27 -58 -51 -58 -21 0 -49 36 -49 62 0 19 34 58
50 58 6 0 19 -9 30 -20z"/>
<path d="M2672 1304 c-15 -10 -22 -25 -22 -49 0 -27 -4 -34 -22 -37 -30 -4
-32 -42 -2 -46 20 -3 21 -8 16 -70 -3 -54 -1 -70 12 -81 33 -27 46 -7 46 73 0
74 0 75 28 78 39 4 38 42 -1 46 -36 4 -34 37 2 37 13 0 29 8 35 18 9 15 7 21
-8 33 -26 18 -56 18 -84 -2z"/>
<path d="M1790 1295 c-20 -25 -8 -50 25 -50 21 0 31 5 33 18 4 21 -14 47 -33
47 -7 0 -18 -7 -25 -15z"/>
<path d="M2086 1294 c-3 -9 -6 -71 -6 -139 0 -96 3 -125 15 -135 8 -7 21 -10
29 -7 12 5 16 34 18 139 2 73 1 139 -1 146 -5 17 -48 15 -55 -4z"/>
<path d="M1434 1220 c-25 -10 -35 -32 -24 -50 7 -11 16 -12 43 -3 37 11 67 2
67 -21 0 -9 -9 -12 -25 -8 -32 6 -70 -4 -89 -24 -22 -21 -20 -67 2 -87 20 -18
68 -22 91 -8 9 6 21 5 31 -1 10 -6 25 -8 35 -4 15 5 17 18 14 92 -4 76 -7 88
-28 105 -24 20 -80 24 -117 9z m86 -133 c0 -18 -21 -37 -41 -37 -22 0 -33 16
-25 35 7 19 66 20 66 2z"/>
<path d="M1632 1214 c-18 -12 -22 -24 -20 -52 3 -32 9 -40 46 -60 56 -31 55
-46 -3 -38 -37 6 -46 4 -52 -10 -9 -25 23 -44 77 -44 53 0 80 21 80 62 0 28
-18 47 -69 73 -25 12 -30 20 -22 28 8 8 19 8 40 0 21 -8 32 -8 40 0 42 42 -64
79 -117 41z"/>
<path d="M1903 1195 c-33 -33 -35 -38 -31 -87 7 -68 39 -98 104 -98 62 0 104
41 70 69 -10 9 -21 7 -44 -6 -29 -17 -31 -17 -51 1 -24 22 -28 68 -6 86 9 7
26 10 42 6 52 -12 58 -11 61 11 4 28 -32 53 -76 53 -26 0 -43 -9 -69 -35z"/>
<path d="M2203 1195 c-33 -33 -35 -38 -31 -87 7 -68 39 -98 104 -98 37 0 51 6
75 29 24 25 29 38 29 78 -1 106 -104 151 -177 78z m105 -37 c28 -28 4 -98 -33
-98 -22 0 -45 30 -45 59 0 32 16 51 45 51 12 0 26 -5 33 -12z"/>
<path d="M2444 1220 c-24 -9 -36 -31 -25 -48 3 -6 29 -10 56 -9 37 2 50 -2 52
-13 3 -12 -8 -15 -48 -15 -39 0 -54 -5 -65 -20 -19 -26 -18 -69 4 -88 20 -18
68 -22 91 -8 9 6 21 5 31 -1 37 -23 50 -3 50 72 0 74 -16 123 -45 134 -23 8
-76 6 -101 -4z m86 -133 c0 -18 -21 -37 -41 -37 -22 0 -33 16 -25 35 7 19 66
20 66 2z"/>
<path d="M1786 1193 c-8 -26 -5 -158 4 -173 4 -6 16 -10 26 -8 17 3 19 13 19
98 0 90 -1 95 -22 98 -14 2 -23 -3 -27 -15z"/>
<path d="M1255 938 c-33 -18 -45 -40 -45 -83 0 -46 26 -79 70 -90 50 -12 109
30 82 57 -9 9 -18 8 -37 -2 -34 -18 -60 -3 -60 35 0 37 27 55 56 37 18 -12 24
-11 38 3 15 15 14 18 -8 36 -26 21 -65 24 -96 7z"/>
<path d="M1430 937 c-15 -7 -30 -28 -38 -51 -32 -99 80 -165 154 -91 73 73
-22 189 -116 142z m80 -53 c17 -20 2 -67 -23 -72 -24 -5 -47 16 -47 42 0 42
45 61 70 30z"/>
<path d="M1607 943 c-4 -3 -7 -43 -7 -89 0 -59 4 -83 13 -87 25 -9 36 8 39 62
2 39 8 57 21 65 24 15 38 -7 36 -59 -2 -64 -1 -67 24 -63 19 3 23 10 27 63 4
52 8 60 25 60 17 0 21 -8 25 -60 5 -56 7 -60 30 -60 24 0 25 3 28 61 2 49 -1
65 -18 87 -24 30 -56 35 -85 13 -16 -11 -21 -11 -33 0 -17 17 -54 18 -70 2 -9
-9 -15 -9 -24 0 -14 14 -22 15 -31 5z"/>
<path d="M1145 817 c-22 -17 -9 -47 21 -47 19 0 24 5 24 24 0 28 -22 39 -45
23z"/>
</g>
</svg>
