<?xml version="1.0" standalone="no"?>
<!DOCTYPE svg PUBLIC "-//W3C//DTD SVG 20010904//EN"
 "http://www.w3.org/TR/2001/REC-SVG-20010904/DTD/svg10.dtd">
<svg version="1.0" xmlns="http://www.w3.org/2000/svg"
 width="300.000000pt" height="99.000000pt" viewBox="0 0 300.000000 99.000000"
 preserveAspectRatio="xMidYMid meet">
<metadata>
Created by potrace 1.10, written by Peter Selinger 2001-2011
</metadata>
<g transform="translate(0.000000,99.000000) scale(0.100000,-0.100000)"
fill="#000000" stroke="none">
<path d="M361 830 c-125 -27 -267 -133 -312 -233 -32 -71 -33 -186 -4 -237 33
-55 97 -96 198 -129 125 -40 232 -54 379 -49 146 5 204 25 267 93 147 160 13
444 -252 535 -71 24 -209 34 -276 20z m85 -63 c-100 -75 -162 -161 -136 -192
17 -20 36 -9 64 39 24 42 100 118 147 149 23 15 30 16 70 3 24 -7 58 -19 74
-26 17 -7 39 -13 49 -14 20 -1 36 -26 17 -26 -23 0 -27 -2 -47 -21 -14 -13
-24 -17 -29 -10 -3 6 6 16 21 21 20 8 24 14 16 22 -14 14 -67 -19 -120 -76
-48 -52 -72 -96 -72 -131 0 -41 25 -29 79 39 50 62 144 136 174 136 17 0 89
-76 111 -117 69 -135 25 -265 -106 -309 -63 -21 -254 -24 -358 -4 -282 52
-373 144 -310 313 44 118 209 223 355 225 l30 1 -29 -22z"/>
<path d="M1098 779 c-16 -9 -18 -28 -18 -172 0 -114 4 -167 12 -175 17 -17 47
-15 54 3 5 13 8 13 27 0 69 -48 167 19 167 115 0 98 -84 154 -174 115 -17 -7
-18 -4 -12 43 5 39 2 54 -10 66 -18 18 -23 19 -46 5z m151 -185 c25 -31 26
-52 6 -81 -23 -32 -54 -35 -81 -8 -29 30 -30 54 -3 89 26 33 52 33 78 0z"/>
<path d="M2192 772 c-9 -7 -12 -48 -10 -173 l3 -164 24 -3 c13 -2 28 2 32 10
14 21 11 312 -3 326 -14 14 -28 15 -46 4z"/>
<path d="M2861 761 c-13 -13 -21 -34 -21 -55 0 -28 -4 -35 -22 -38 -17 -2 -24
-11 -26 -30 -3 -24 0 -28 22 -28 26 0 26 0 26 -90 0 -49 2 -90 4 -90 2 0 11
-3 19 -6 31 -12 47 24 47 106 0 78 0 79 28 82 21 2 27 8 27 28 0 21 -5 25 -28
25 -24 -1 -28 3 -25 25 2 21 8 25 33 25 27 0 30 3 30 30 0 29 -2 30 -47 33
-37 2 -51 -1 -67 -17z m39 -120 c0 -5 -7 -14 -15 -21 -21 -17 -39 1 -30 29 5
17 10 19 26 11 10 -6 19 -14 19 -19z"/>
<path d="M1831 756 c-7 -8 -11 -25 -9 -38 2 -19 9 -23 38 -23 33 0 35 2 35 35
0 30 -4 35 -26 38 -14 2 -31 -4 -38 -12z"/>
<path d="M1410 667 c-27 -14 -38 -43 -21 -60 7 -7 22 -7 51 3 36 12 42 11 60
-5 31 -28 24 -34 -37 -34 -50 1 -60 -2 -80 -25 -61 -71 22 -158 106 -112 21
12 27 12 39 0 16 -16 22 -17 41 -5 12 8 14 30 13 98 -2 48 -5 96 -8 106 -12
40 -111 61 -164 34z m110 -145 c0 -4 -7 -18 -16 -30 -11 -16 -24 -22 -42 -20
-30 3 -43 35 -20 49 16 11 78 12 78 1z"/>
<path d="M1646 659 c-19 -15 -26 -30 -26 -54 0 -40 18 -60 71 -82 50 -19 54
-48 7 -39 -71 15 -83 13 -83 -14 0 -29 34 -50 85 -50 112 0 136 106 35 151
-51 23 -64 55 -17 46 65 -13 67 -13 70 12 5 33 -21 51 -74 51 -27 0 -51 -7
-68 -21z"/>
<path d="M1979 657 c-100 -67 -52 -237 68 -237 67 0 120 47 89 79 -14 13 -19
13 -49 -1 -49 -23 -81 -6 -85 45 -4 52 12 70 57 63 75 -13 76 -13 79 16 6 54
-96 77 -159 35z"/>
<path d="M2338 664 c-78 -42 -77 -188 2 -229 134 -69 258 110 146 212 -29 27
-44 33 -78 33 -24 -1 -55 -7 -70 -16z m117 -88 c19 -55 -48 -111 -91 -75 -17
14 -18 70 -1 91 28 35 76 27 92 -16z"/>
<path d="M2600 667 c-27 -14 -38 -43 -21 -60 7 -7 22 -7 50 3 33 10 43 11 56
0 31 -26 18 -40 -40 -40 -67 0 -95 -22 -95 -74 0 -62 75 -97 128 -60 22 15 24
15 36 -1 9 -12 19 -15 34 -11 21 7 22 14 22 102 0 92 -1 97 -29 125 -24 23
-38 29 -73 29 -24 0 -54 -6 -68 -13z m100 -151 c0 -21 -28 -46 -51 -46 -22 0
-34 22 -25 45 7 20 76 21 76 1z"/>
<path d="M1830 641 c-15 -29 -9 -190 8 -207 17 -18 27 -18 46 2 20 19 23 193
4 212 -18 18 -46 14 -58 -7z"/>
<path d="M1187 330 c-29 -23 -48 -77 -40 -112 8 -34 51 -75 84 -82 30 -6 91
13 103 32 10 17 -5 42 -24 42 -11 0 -22 -4 -25 -10 -9 -14 -48 -13 -63 2 -17
17 -15 64 4 83 16 16 48 13 69 -6 14 -14 23 -11 35 11 28 52 -87 84 -143 40z"/>
<path d="M1397 330 c-29 -23 -48 -77 -40 -112 8 -32 50 -75 80 -83 35 -8 89
12 113 42 32 40 27 107 -9 144 -37 37 -104 41 -144 9z m97 -46 c19 -18 21 -65
4 -82 -7 -7 -21 -12 -33 -12 -29 0 -45 19 -45 51 0 29 23 59 45 59 7 0 21 -7
29 -16z"/>
<path d="M1615 340 c-6 -9 -8 -96 -6 -183 1 -14 8 -18 29 -15 26 3 27 5 32 73
5 67 6 70 30 70 24 0 25 -3 30 -70 5 -68 6 -70 33 -73 27 -3 27 -3 27 55 0 65
16 97 46 91 16 -3 20 -14 24 -73 5 -67 6 -70 30 -70 24 0 25 2 28 82 2 72 0
85 -18 103 -24 24 -82 27 -100 5 -11 -13 -15 -13 -33 0 -28 20 -71 19 -88 -1
-11 -14 -13 -14 -21 0 -10 18 -34 21 -43 6z"/>
<path d="M1071 196 c-19 -23 -4 -56 25 -56 28 0 42 25 27 49 -14 22 -37 25
-52 7z"/>
</g>
</svg>
